<svg width="39" height="39" viewBox="0 0 39 39" fill="none" xmlns="http://www.w3.org/2000/svg">
<path fill-rule="evenodd" clip-rule="evenodd" d="M8.88865 8.88878C9.11717 8.66054 9.42693 8.53235 9.7499 8.53235C10.0729 8.53235 10.3826 8.66054 10.6112 8.88878L30.1112 28.3888C30.2309 28.5004 30.3269 28.6349 30.3935 28.7844C30.4602 28.9339 30.496 29.0953 30.4989 29.2589C30.5018 29.4226 30.4717 29.5851 30.4104 29.7369C30.3491 29.8886 30.2578 30.0265 30.1421 30.1422C30.0264 30.2579 29.8885 30.3492 29.7367 30.4105C29.585 30.4718 29.4224 30.5019 29.2588 30.499C29.0952 30.4961 28.9338 30.4603 28.7843 30.3937C28.6348 30.3271 28.5002 30.231 28.3887 30.1113L8.88865 10.6113C8.66042 10.3828 8.53223 10.073 8.53223 9.75003C8.53223 9.42706 8.66042 9.11729 8.88865 8.88878Z" fill="white"/>
<path fill-rule="evenodd" clip-rule="evenodd" d="M30.1111 8.88878C30.3394 9.11729 30.4676 9.42706 30.4676 9.75003C30.4676 10.073 30.3394 10.3828 30.1111 10.6113L10.6111 30.1113C10.3801 30.3266 10.0745 30.4438 9.75877 30.4382C9.44303 30.4326 9.14178 30.3047 8.91849 30.0814C8.69519 29.8581 8.56728 29.5569 8.56171 29.2411C8.55614 28.9254 8.67334 28.6198 8.88862 28.3888L28.3886 8.88878C28.6171 8.66054 28.9269 8.53235 29.2499 8.53235C29.5728 8.53235 29.8826 8.66054 30.1111 8.88878Z" fill="white"/>
</svg>
