<svg width="26" height="24" viewBox="0 0 26 24" fill="none" xmlns="http://www.w3.org/2000/svg">
<path d="M12.8986 2C7.19327 2 2.56287 6.48 2.56287 12C2.56287 17.52 7.19327 22 12.8986 22C18.6039 22 23.2343 17.52 23.2343 12C23.2343 6.48 18.6039 2 12.8986 2ZM17.6944 8.8C17.5393 10.38 16.8675 14.22 16.5264 15.99C16.3817 16.74 16.0923 16.99 15.8236 17.02C15.2241 17.07 14.7693 16.64 14.1905 16.27C13.281 15.69 12.7642 15.33 11.8857 14.77C10.8624 14.12 11.5239 13.76 12.1131 13.18C12.2681 13.03 14.914 10.7 14.9657 10.49C14.9729 10.4582 14.9719 10.4252 14.9629 10.3938C14.9539 10.3624 14.9372 10.3337 14.914 10.31C14.852 10.26 14.7693 10.28 14.697 10.29C14.604 10.31 13.157 11.24 10.3353 13.08C9.9219 13.35 9.54981 13.49 9.21907 13.48C8.84698 13.47 8.14415 13.28 7.61703 13.11C6.96588 12.91 6.45943 12.8 6.50077 12.45C6.52145 12.27 6.77984 12.09 7.26562 11.9C10.2836 10.63 12.2888 9.79 13.2913 9.39C16.1647 8.23 16.7538 8.03 17.1466 8.03C17.2292 8.03 17.4256 8.05 17.5497 8.15C17.653 8.23 17.684 8.34 17.6944 8.42C17.684 8.48 17.7047 8.66 17.6944 8.8Z" fill="black"/>
</svg>
