<svg width="39" height="39" viewBox="0 0 39 39" fill="none" xmlns="http://www.w3.org/2000/svg">
<path d="M10.7575 17.5337C13.0975 22.1325 16.8675 25.9025 21.4662 28.2425L25.0413 24.6675C25.4963 24.2125 26.13 24.0825 26.6987 24.2612C28.5188 24.8625 30.4688 25.1875 32.5 25.1875C32.931 25.1875 33.3443 25.3587 33.649 25.6635C33.9538 25.9682 34.125 26.3815 34.125 26.8125V32.5C34.125 32.931 33.9538 33.3443 33.649 33.649C33.3443 33.9538 32.931 34.125 32.5 34.125C25.1734 34.125 18.1469 31.2145 12.9662 26.0338C7.78548 20.8531 4.875 13.8266 4.875 6.5C4.875 6.06902 5.0462 5.6557 5.35095 5.35095C5.6557 5.0462 6.06902 4.875 6.5 4.875H12.1875C12.6185 4.875 13.0318 5.0462 13.3365 5.35095C13.6413 5.6557 13.8125 6.06902 13.8125 6.5C13.8125 8.53125 14.1375 10.4813 14.7387 12.3013C14.9175 12.87 14.7875 13.5037 14.3325 13.9587L10.7575 17.5337Z" fill="#F8F8F8"/>
</svg>
