<svg width="22" height="20" viewBox="0 0 22 20" fill="none" xmlns="http://www.w3.org/2000/svg">
<path d="M8.87201 8.86C8.92369 8.53 9.03738 8.24 9.18208 8C9.49215 7.44 10.0193 7.15 10.7324 7.14C11.1975 7.14 11.6213 7.34 11.921 7.63C12.2104 7.94 12.4068 8.37 12.4068 8.8H14.2673C14.2466 8.33 14.1536 7.9 13.9572 7.5C13.8021 7.12 13.5644 6.78 13.2544 6.5C11.7557 5.16 8.97537 5.35 7.70407 6.87C6.37077 8.54 6.33976 11.46 7.69374 13.13C8.94436 14.62 11.6833 14.83 13.1717 13.5C13.4921 13.25 13.7505 12.94 13.9572 12.58C14.1226 12.22 14.2362 11.84 14.2466 11.43H12.4068C12.4068 11.64 12.3345 11.83 12.2415 12C12.1484 12.19 12.0244 12.34 11.89 12.47C11.549 12.73 11.1459 12.87 10.7118 12.87C10.3397 12.86 10.0296 12.79 9.79189 12.64C9.52349 12.4948 9.3099 12.2706 9.18208 12C8.6653 11.1 8.74798 9.85 8.87201 8.86ZM10.8565 0C5.17182 0 0.520752 4.5 0.520752 10C1.06854 23.27 20.6754 23.26 21.1922 10C21.1922 4.5 16.5411 0 10.8565 0ZM10.8565 18C6.29842 18 2.58789 14.41 2.58789 10C3.04267 -0.61 18.6703 -0.61 19.125 10C19.125 14.41 15.4145 18 10.8565 18Z" fill="black"/>
</svg>
