<svg width="22" height="20" viewBox="0 0 22 20" fill="none" xmlns="http://www.w3.org/2000/svg">
<path d="M18.3278 2.91006C17.3802 1.98399 16.2515 1.24973 15.0076 0.750111C13.7636 0.250494 12.4293 -0.00448012 11.0825 5.95696e-05C5.43916 5.95696e-05 0.839766 4.45006 0.839766 9.91006C0.839766 11.6601 1.31521 13.3601 2.20408 14.8601L0.75708 20.0001L6.18333 18.6201C7.68201 19.4101 9.36673 19.8301 11.0825 19.8301C16.7258 19.8301 21.3252 15.3801 21.3252 9.92006C21.3252 7.27006 20.2606 4.78006 18.3278 2.91006ZM11.0825 18.1501C9.55277 18.1501 8.05409 17.7501 6.74146 17.0001L6.43139 16.8201L3.20664 17.6401L4.06451 14.6001L3.85779 14.2901C3.00794 12.977 2.55667 11.4593 2.55549 9.91006C2.55549 5.37006 6.37971 1.67006 11.0721 1.67006C13.346 1.67006 15.4855 2.53006 17.0875 4.09006C17.8808 4.85402 18.5094 5.76272 18.937 6.76348C19.3646 7.76425 19.5826 8.83717 19.5784 9.92006C19.5991 14.4601 15.7749 18.1501 11.0825 18.1501ZM15.7542 11.9901C15.4958 11.8701 14.2349 11.2701 14.0075 11.1801C13.7697 11.1001 13.6044 11.0601 13.4287 11.3001C13.253 11.5501 12.7672 12.1101 12.6225 12.2701C12.4778 12.4401 12.3227 12.4601 12.0644 12.3301C11.806 12.2101 10.9791 11.9401 10.0075 11.1001C9.2427 10.4401 8.73625 9.63006 8.58122 9.38006C8.43652 9.13006 8.56054 9.00006 8.69491 8.87006C8.8086 8.76006 8.9533 8.58006 9.07733 8.44006C9.20136 8.30006 9.25304 8.19006 9.33572 8.03006C9.41841 7.86006 9.37707 7.72006 9.31505 7.60006C9.25304 7.48006 8.73625 6.26006 8.52954 5.76006C8.32282 5.28006 8.10577 5.34006 7.95074 5.33006H7.45462C7.27892 5.33006 7.01019 5.39006 6.77247 5.64006C6.54508 5.89006 5.88359 6.49006 5.88359 7.71006C5.88359 8.93006 6.80347 10.1101 6.9275 10.2701C7.05153 10.4401 8.73625 12.9401 11.2995 14.0101C11.9093 14.2701 12.3848 14.4201 12.7568 14.5301C13.3667 14.7201 13.9248 14.6901 14.3692 14.6301C14.8653 14.5601 15.8886 14.0301 16.0953 13.4501C16.3123 12.8701 16.3123 12.3801 16.24 12.2701C16.1676 12.1601 16.0126 12.1101 15.7542 11.9901Z" fill="black"/>
</svg>
